<svg width="24" height="24" viewBox="0 0 24 24" fill="none" xmlns="http://www.w3.org/2000/svg">
<path d="M21.6211 9.20078C21.7734 9.07363 22 9.19258 22 9.39355V17.7812C22 18.8682 21.1602 19.75 20.125 19.75H3.875C2.83984 19.75 2 18.8682 2 17.7812V9.39766C2 9.19258 2.22266 9.07773 2.37891 9.20488C3.25391 9.91855 4.41406 10.825 8.39844 13.8643C9.22266 14.4959 10.6133 15.8248 12 15.8166C13.3945 15.8289 14.8125 14.4713 15.6055 13.8643C19.5898 10.825 20.7461 9.91445 21.6211 9.20078ZM12 14.5C12.9062 14.5164 14.2109 13.3023 14.8672 12.802C20.0508 8.85215 20.4453 8.50762 21.6406 7.52324C21.8672 7.33867 22 7.05156 22 6.74805V5.96875C22 4.88184 21.1602 4 20.125 4H3.875C2.83984 4 2 4.88184 2 5.96875V6.74805C2 7.05156 2.13281 7.33457 2.35938 7.52324C3.55469 8.50352 3.94922 8.85215 9.13281 12.802C9.78906 13.3023 11.0938 14.5164 12 14.5Z" fill="black"/>
</svg>
