<svg width="1378" height="86" viewBox="0 0 1378 86" fill="none" xmlns="http://www.w3.org/2000/svg">
<path d="M-14 -188H1430V81.0162L1310.85 70.0222C1271.43 66.3841 1231.71 67.4421 1192.53 73.1739L1146.93 79.8449C1100.89 86.582 1054.12 86.8571 1008 80.6623L944.31 72.1087C906.89 67.0829 869.02 66.3119 831.426 69.8103L756.036 76.8259C726.079 79.6137 695.931 79.6919 665.959 77.0594L568.538 68.5026C538.566 65.8701 508.418 65.9482 478.461 68.736L391.644 76.815C361.609 79.61 331.382 79.6813 301.334 77.0279L205.547 68.5694C175.234 65.8926 144.739 65.9888 114.443 68.8568L-14 81.0162V-188Z" fill="url(#paint0_linear_56_709)"/>
<defs>
<linearGradient id="paint0_linear_56_709" x1="1501.88" y1="-206.099" x2="1421.35" y2="336.276" gradientUnits="userSpaceOnUse">
<stop stop-color="#172554"/>
<stop offset="1" stop-color="#1E40AF"/>
</linearGradient>
</defs>
</svg>
